{"title":"The Great Ziegfeld (1936) DVDRip","uid":8847746,"size":2212846108,"categoryP":"video","categoryS":"movies","magnet":"?xt=urn:btih:14e1e7a7b623e3d27ff6bdbe2355e31dacfa5d10&amp;dn=The+Great+Ziegfeld+%281936%29+DVDRip&amp;tr=udp%3A%2F%2Ftracker.openbittorrent.com%3A80&amp;tr=udp%3A%2F%2Fopen.demonii.com%3A1337&amp;tr=udp%3A%2F%2Ftracker.coppersurfer.tk%3A6969&amp;tr=udp%3A%2F%2Fexodus.desync.com%3A6969","seeders":2,"leechers":2,"uploader":"TeX","files":1,"time":1377445390,"description":"[img]http://lookpic.com/O/i2/723/4y7Hs6Mo.jpeg[/img]\n\nThe Great Ziegfeld (1936) DVDRip\n\nIMDb: http://www.imdb.com/title/tt0027698/\n\nGeneral\nComplete name : The Great Ziegfeld (1936).avi\nFormat : AVI\nFormat/Info : Audio Video Interleave\nFormat profile : OpenDML\nFile size : 2.06 GiB\nDuration : 3h 5mn\nOverall bit rate : 1 590 Kbps\nMovie name : Best Picture - 1936 - The Great Ziegfeld\nWriting application : Lavf52.33.0\nOriginal source form/Name : THE_GREAT_ZIEGFELD\n\nVideo\nID : 0\nFormat : MPEG-4 Visual\nFormat profile : Simple@L3\nFormat settings, BVOP : No\nFormat settings, QPel : No\nFormat settings, GMC : No warppoints\nFormat settings, Matrix : Default (H.263)\nCodec ID : XVID\nCodec ID/Hint : XviD\nDuration : 3h 5mn\nBit rate : 1 383 Kbps\nWidth : 640 pixels\nHeight : 480 pixels\nDisplay aspect ratio : 4:3\nFrame rate : 29.970 fps\nColor space : YUV\nChroma subsampling : 4:2:0\nBit depth : 8 bits\nScan type : Progressive\nCompression mode : Lossy\nBits/(Pixel*Frame) : 0.150\nStream size : 1.79 GiB (87%)\nWriting library : XviD 1.2.1 (UTC 2008-12-04)\n\nAudio\nID : 1\nFormat : AC-3\nFormat/Info : Audio Coding 3\nMode extension : CM (complete main)\nFormat settings, Endianness : Big\nCodec ID : 2000\nDuration : 3h 5mn\nBit rate mode : Constant\nBit rate : 192 Kbps\nChannel(s) : 1 channel\nChannel positions : Front: C\nSampling rate : 48.0 KHz\nBit depth : 16 bits\nCompression mode : Lossy\nStream size : 255 MiB (12%)\nAlignment : Aligned on interleaves\nInterleave, duration : 32 ms (0.96 video frame)\n\n\n[img]http://lookpic.com/O/i2/1132/dYFI5wtV.jpeg[/img]","torrent":{"xt":"urn:btih:14e1e7a7b623e3d27ff6bdbe2355e31dacfa5d10","amp;dn":"The+Great+Ziegfeld+%281936%29+DVDRip","amp;tr":["udp%3A%2F%2Ftracker.openbittorrent.com%3A80","udp%3A%2F%2Fopen.demonii.com%3A1337","udp%3A%2F%2Ftracker.coppersurfer.tk%3A6969","udp%3A%2F%2Fexodus.desync.com%3A6969"],"infoHash":"14e1e7a7b623e3d27ff6bdbe2355e31dacfa5d10","infoHashBuffer":{"type":"Buffer","data":[20,225,231,167,182,35,227,210,127,246,189,190,35,85,227,29,172,250,93,16]},"announce":[],"urlList":[]}}